<?xml version="1.0" encoding="UTF-8" standalone="no"?>
<svg
   xmlns:dc="http://purl.org/dc/elements/1.1/"
   xmlns:cc="http://creativecommons.org/ns#"
   xmlns:rdf="http://www.w3.org/1999/02/22-rdf-syntax-ns#"
   xmlns:svg="http://www.w3.org/2000/svg"
   xmlns="http://www.w3.org/2000/svg"
   width="36"
   height="36"
   viewBox="0 0 36 36"
   fill="none"
   version="1.1"
   id="svg13">
  <metadata
     id="metadata17">
    <rdf:RDF>
      <cc:Work
         rdf:about="">
        <dc:format>image/svg+xml</dc:format>
        <dc:type
           rdf:resource="http://purl.org/dc/dcmitype/StillImage" />
        <dc:title></dc:title>
      </cc:Work>
    </rdf:RDF>
  </metadata>
  <g
     clip-path="url(#clip0)"
     id="g6">
    <path
       id="path2"
       d="M 18 0 C 8.059 0 0 8.059 0 18 C 0 27.9411 8.059 36 18 36 C 27.9411 36 36 27.9411 36 18 C 36 8.059 27.9411 0 18 0 z M 22.572266 10.917969 C 23.810566 10.917969 24.930044 11.441444 25.714844 12.277344 C 26.694444 12.084444 27.615866 11.725622 28.447266 11.232422 C 28.125366 12.237722 27.443188 13.080881 26.554688 13.613281 C 27.424888 13.509881 28.254091 13.277547 29.025391 12.935547 C 28.448791 13.798347 27.720206 14.555709 26.878906 15.162109 C 26.887206 15.346309 26.890625 15.53235 26.890625 15.71875 C 26.890625 21.40485 22.562237 27.960938 14.648438 27.960938 C 12.218837 27.960938 9.9577275 27.248644 8.0546875 26.027344 C 8.3906275 26.067544 8.7335481 26.087891 9.0800781 26.087891 C 11.096388 26.087891 12.951028 25.400294 14.423828 24.246094 C 12.540628 24.211094 10.95365 22.966712 10.40625 21.257812 C 10.66875 21.307912 10.936944 21.335938 11.214844 21.335938 C 11.606644 21.335938 11.986956 21.282394 12.347656 21.183594 C 10.379756 20.788594 8.8964844 19.049444 8.8964844 16.964844 C 8.8964844 16.946844 8.8961644 16.930409 8.8964844 16.912109 C 9.4762844 17.235209 10.140703 17.427019 10.845703 17.449219 C 9.6918431 16.677819 8.9316406 15.361441 8.9316406 13.869141 C 8.9316406 13.080741 9.1433919 12.340378 9.5136719 11.705078 C 11.635872 14.308878 14.807113 16.021772 18.382812 16.201172 C 18.309012 15.886072 18.271484 15.558003 18.271484 15.220703 C 18.271484 12.845003 20.196666 10.917969 22.572266 10.917969 z "
       fill="currentColor" />
  </g>
  <defs
     id="defs11">
    <clipPath
       id="clip0">
      <rect
         width="36"
         height="36"
         fill="currentColor"
         id="rect8" />
    </clipPath>
  </defs>
</svg>
