<svg width="209" height="48" viewBox="0 0 209 48" fill="none" xmlns="http://www.w3.org/2000/svg">
<path d="M31.1454 28.0642V22.5951C31.1454 22.1576 30.9267 22.1576 30.4891 22.1576H21.7386C21.5198 22.1576 21.3011 22.3763 21.3011 22.8139V26.5328C21.3011 26.9704 21.5198 27.1891 21.7386 27.1891H25.8951V28.0642C25.8951 31.1269 24.3638 32.4394 21.3011 32.4394C17.5821 32.4394 16.4883 30.2518 16.4883 27.4079V20.6262C16.4883 17.7823 17.8009 15.5947 21.3011 15.5947C23.7075 15.5947 25.0201 16.6885 25.6763 18.6574C25.8951 19.0949 26.1139 19.3136 26.5514 19.0949L30.4891 18.0011C30.9267 17.7823 31.1454 17.5635 30.9267 17.126C29.8329 13.8446 27.2077 10.5631 21.5198 10.5631C14.3007 10.5631 11.0192 14.7196 11.0192 20.6262V27.6266C11.0192 33.5333 14.3007 37.6898 21.5198 37.6898C27.2077 37.2522 31.1454 33.3145 31.1454 28.0642ZM57.397 16.4697C56.0845 16.4697 54.7719 16.4697 53.4593 16.6885C52.1467 16.9072 51.0529 17.3448 50.1778 17.7823C50.6154 18.2198 51.0529 18.4386 51.4904 18.8761C51.928 19.0949 52.1467 19.5324 52.3655 19.9699C53.4593 19.5324 54.3343 19.0949 54.9906 18.6574C56.0845 17.7823 56.7407 17.126 57.397 16.4697ZM59.1471 26.9704C59.3659 26.7516 59.3659 26.5328 59.3659 26.3141C58.4908 25.8765 57.8346 25.6578 57.1783 25.439C56.522 25.439 55.8657 25.2203 55.2094 25.439C54.5531 25.439 54.1156 25.6578 53.4593 25.6578C52.803 25.8765 52.3655 25.8765 51.7092 25.8765C51.4904 26.5328 51.0529 27.4079 50.8341 28.2829C50.6154 29.158 50.1778 30.033 49.9591 30.6893C50.6154 30.6893 51.4904 30.4706 52.1467 30.2518C52.803 30.033 53.4593 29.8143 53.8968 29.5955C54.5531 29.3768 54.9906 29.158 55.6469 28.9392C56.3032 28.7205 56.7407 28.5017 57.397 28.2829C57.397 28.0642 57.6158 27.8454 57.8346 27.6266C58.0533 27.4079 58.2721 27.4079 58.4909 27.1891C58.7096 27.4079 58.9284 27.1891 59.1471 26.9704ZM115.151 26.3141V21.2825C115.151 18.8761 114.275 16.9072 110.775 16.9072H107.931V30.4706H110.775C114.057 30.6893 115.151 28.7205 115.151 26.3141ZM149.496 25.6578H153.872L153.653 24.564C152.997 22.3763 152.122 19.3136 151.903 17.3448H151.684C151.246 19.3136 150.59 22.3763 149.934 24.564L149.496 25.6578ZM196.749 18.8761C196.093 19.9699 195.218 20.845 194.124 21.5013C194.124 21.72 194.124 21.9388 194.124 21.9388C193.687 22.1576 193.468 22.3763 193.249 22.3763C193.03 22.5951 193.03 22.8139 192.812 23.0326C192.593 23.2514 192.593 23.4701 192.374 23.6889C192.155 23.9077 191.936 24.1264 191.499 24.3452C191.499 24.564 191.28 24.7827 191.28 24.7827C191.061 24.7827 191.061 25.0015 190.843 25.0015C190.624 25.0015 190.624 25.2203 190.405 25.2203C190.186 25.2203 190.186 25.439 190.186 25.8765L188.874 27.8454C188.436 27.8454 187.999 27.8454 187.561 28.0642C187.124 28.0642 186.905 28.2829 186.686 28.2829C186.467 28.2829 186.249 28.2829 186.03 28.0642C185.811 27.8454 185.592 27.6266 185.592 26.9704C185.592 26.7516 185.592 26.5328 185.592 26.5328C185.592 26.5328 185.811 26.3141 185.811 26.0953C185.592 25.6578 185.592 25.439 185.811 25.2203C185.811 25.0015 186.03 24.7827 186.249 24.564C186.467 24.3452 186.467 24.1264 186.686 23.9077C186.905 23.6889 186.905 23.4701 187.124 23.0326C187.342 22.8139 187.561 22.5951 187.999 22.1576C188.217 21.72 188.436 21.2825 188.874 21.0637C189.311 20.6262 189.53 20.4075 189.968 19.9699C190.186 19.7512 190.405 19.3136 190.843 19.0949C191.061 18.8761 191.28 18.4386 191.499 18.2198C191.718 18.0011 191.936 17.5635 192.374 17.126C191.718 16.9072 191.499 16.9072 191.28 16.9072C191.061 16.9072 190.624 17.126 190.405 17.126C189.749 17.126 189.311 17.126 188.655 17.3448C188.217 17.3448 187.561 17.5635 186.686 17.7823C186.467 17.7823 186.249 18.0011 186.03 18.0011C185.811 18.0011 185.811 18.2198 185.374 18.2198C185.374 18.4386 185.155 18.4386 185.155 18.6574C184.936 18.6574 184.936 18.8761 184.717 18.8761C184.499 18.8761 184.499 19.0949 184.28 19.0949C184.061 19.0949 184.061 19.3136 183.842 19.3136C183.405 19.3136 183.186 19.3136 182.748 19.0949C182.53 18.8761 182.092 18.6574 181.655 18.6574C181.655 18.4386 181.655 18.4386 181.655 18.4386C181.655 18.4386 181.655 18.2198 181.655 18.0011C181.436 18.0011 181.436 18.0011 181.217 17.7823C181.217 17.7823 181.217 17.5635 180.998 17.5635C180.998 17.3448 180.998 16.9072 181.217 16.6885C181.217 16.4697 181.436 16.251 181.436 16.0322C181.655 15.8134 181.655 15.5947 181.873 15.3759C182.092 15.1571 182.092 14.9384 182.092 14.5009C182.311 14.2821 182.53 14.0633 182.748 13.8446C182.967 13.6258 183.186 13.407 183.186 13.1883C184.28 12.7507 185.155 12.532 186.249 12.3132C187.124 12.0945 188.217 11.8757 189.311 11.8757C190.405 11.6569 191.28 11.6569 192.374 11.6569C193.468 11.6569 194.562 11.6569 195.655 11.6569C195.874 11.8757 196.093 11.8757 196.093 12.0945C196.312 12.3132 196.312 12.3132 196.531 12.3132C196.531 12.7507 196.749 13.1883 196.749 13.6258C196.968 14.0633 196.968 14.5009 197.187 14.9384C197.624 16.4697 197.406 17.7823 196.749 18.8761ZM179.248 35.2834C179.248 35.5021 179.029 35.7209 178.811 35.7209H165.029C164.81 35.7209 164.591 35.5021 164.591 35.2834V12.532C164.591 12.3132 164.81 12.0945 165.029 12.0945H169.404C169.841 12.0945 169.841 12.3132 169.841 12.532V30.6893H178.592C178.811 30.6893 179.029 30.9081 179.029 31.3456V35.2834H179.248ZM161.966 35.7209H157.372C156.934 35.7209 156.934 35.5021 156.716 35.2834L155.403 30.6893H147.965L146.652 35.2834C146.652 35.7209 146.215 35.7209 145.996 35.7209H141.84C141.402 35.7209 141.402 35.5021 141.402 35.0646L148.184 12.532C148.184 12.0945 148.621 12.0945 148.84 12.0945H154.309C154.747 12.0945 154.965 12.3132 155.184 12.532L162.185 35.2834C162.403 35.5021 162.185 35.7209 161.966 35.7209ZM138.996 35.2834C138.996 35.7209 138.777 35.7209 138.558 35.7209H124.557C124.339 35.7209 124.12 35.5021 124.12 35.2834V12.532C124.12 12.3132 124.339 12.0945 124.557 12.0945H138.558C138.777 12.0945 138.996 12.3132 138.996 12.532V16.4697C138.996 16.9072 138.777 16.9072 138.558 16.9072H129.589V21.2825H137.464C137.683 21.2825 137.902 21.5013 137.902 21.72V25.439C137.902 25.8765 137.683 25.8765 137.464 25.8765H129.589V30.6893H138.558C138.777 30.6893 138.996 30.9081 138.996 31.1269V35.2834ZM120.62 26.3141C120.62 31.3456 117.557 35.7209 110.775 35.7209H102.9C102.681 35.7209 102.462 35.5021 102.462 35.2834V12.532C102.462 12.3132 102.681 12.0945 102.9 12.0945H110.775C117.776 12.0945 120.62 16.4697 120.62 21.2825V26.3141ZM95.2431 23.2514C95.4619 23.4701 95.6806 23.6889 95.2431 23.6889C95.2431 23.6889 95.4619 25.0015 95.0243 26.0953L94.8056 26.7516C94.8056 26.9704 94.8056 27.1891 94.8056 27.4079C94.8056 27.6266 94.8056 28.0642 94.8056 28.2829C94.8056 28.5017 94.8056 28.9392 94.8056 29.158C94.8056 30.033 94.5868 30.6893 94.368 31.3456C94.1493 32.0019 93.9305 32.877 93.9305 33.5333C93.9305 33.752 93.9305 33.752 93.9305 33.9708C93.9305 34.1895 93.9305 34.1895 93.9305 34.4083C93.9305 34.4083 93.9305 34.6271 93.7117 34.6271C93.7117 34.6271 93.493 34.6271 93.493 34.8458C93.493 35.0646 93.493 35.2834 93.493 35.2834C93.493 35.5021 93.493 35.5021 93.493 35.7209C93.493 35.9397 93.2742 36.1584 93.2742 36.3772C93.0555 36.5959 93.0555 37.0335 93.0555 37.2522C92.8367 37.471 92.8367 37.471 92.6179 37.6898C92.3992 37.9085 92.3992 37.9085 92.1804 38.1273C91.9616 38.3461 91.9616 38.3461 91.7429 38.5648C91.5241 38.5648 91.3054 38.7836 91.0866 38.7836C90.8678 38.5648 90.8678 38.3461 90.8678 38.1273C90.8678 37.9085 90.8678 37.6898 90.6491 37.471C90.6491 37.2522 90.4303 37.0335 90.4303 36.8147C90.4303 36.5959 90.2115 36.3772 89.9928 36.3772C89.9928 36.1584 89.9928 35.9397 89.9928 35.7209C89.9928 35.5021 89.9928 35.2834 89.9928 35.0646C89.9928 34.8458 89.9928 34.6271 89.774 34.4083C89.774 34.1895 89.5552 34.1895 89.3365 33.9708C89.5552 33.5333 89.5552 33.0957 89.774 32.6582C89.5552 32.6582 89.3365 32.6582 89.1177 32.877C88.899 32.877 88.6802 33.0957 88.4614 33.0957C87.3676 33.3145 86.055 33.3145 84.9612 33.3145C83.6486 33.3145 82.5548 33.0957 81.461 32.877C81.2422 32.6582 81.0235 32.4394 80.8047 32.2207C80.5859 32.0019 80.1484 32.0019 79.9297 32.0019C79.2734 31.7832 78.8358 31.3456 78.3983 30.6893C77.9608 30.033 77.5233 29.5955 77.3045 28.9392C77.0857 28.2829 76.867 27.6266 76.6482 26.9704C76.4294 26.3141 76.4294 25.6578 76.2107 25.0015C76.2107 24.564 76.4294 23.9077 76.6482 23.4701C76.867 23.0326 77.0857 22.5951 77.3045 22.1576C77.5233 21.72 77.742 21.2825 77.9608 20.845C78.1796 20.4075 78.3983 19.9699 78.8358 19.7512C79.0546 19.7512 79.0546 19.7512 79.0546 19.7512C79.0546 19.5324 79.2734 19.3136 79.2734 19.0949C79.4921 18.8761 79.4921 18.6574 79.7109 18.6574C79.9297 18.4386 79.9297 18.4386 80.1484 18.2198C80.3672 18.0011 80.3672 18.0011 80.5859 17.7823C81.0235 17.5635 81.461 17.3448 81.6798 17.126C81.8985 16.9072 82.3361 16.6885 82.5548 16.251C82.7736 16.0322 83.2111 15.5947 83.4299 15.3759C83.6486 15.1571 84.0862 14.9384 84.5237 14.7196C84.7424 14.5009 84.7425 14.2821 84.9612 14.0633C85.18 13.8446 85.3987 13.8446 85.6175 13.6258C85.8363 13.407 86.055 13.407 86.2738 13.1883C86.4926 12.9695 86.7113 12.7507 86.7113 12.532C86.9301 12.7507 86.9301 12.7507 87.1488 12.532C87.3676 12.532 87.5864 12.3132 87.5864 12.3132H87.8051C87.8051 12.3132 88.0239 12.3132 88.0239 12.532H88.2427C88.2427 12.532 88.2427 12.532 88.4614 12.3132C88.6802 12.3132 88.6802 12.3132 88.6802 12.532C88.6802 12.7507 88.6802 12.7507 88.6802 12.7507C88.899 12.7507 89.1177 12.7507 89.1177 12.7507C89.3365 12.7507 89.5552 12.9695 89.774 12.9695L89.9928 13.1883V13.407C90.6491 13.407 91.0866 13.8446 91.3054 14.0633C91.5241 14.5009 91.7429 14.9384 91.5241 15.3759C91.5241 15.8134 91.3054 16.251 90.8678 16.6885C90.4303 17.126 90.2115 17.5635 89.774 17.7823C89.3365 18.0011 88.6802 18.2198 88.2427 18.4386C87.8051 18.6574 87.3676 18.8761 86.9301 19.0949C86.4926 19.3136 86.055 19.5324 85.8363 19.9699C85.3987 20.1887 85.18 20.6262 84.9612 21.0637C84.5237 21.2825 84.0862 21.5013 83.6486 21.9388C83.2111 22.1576 82.9923 22.5951 82.5548 23.0326C82.3361 23.4701 81.8985 23.6889 81.6798 24.1264C81.461 24.564 81.0235 25.0015 80.8047 25.2203C80.8047 25.439 80.8047 25.8765 80.8047 25.8765C80.8047 26.0953 80.5859 26.3141 80.5859 26.5328C80.5859 26.9704 80.8047 27.1891 81.0235 27.4079C81.2422 27.6266 81.2422 27.8454 81.461 28.0642C82.9923 28.2829 84.5237 28.2829 86.2738 28.0642C88.0239 27.8454 89.5552 27.6266 91.0866 27.4079C91.0866 27.4079 91.3054 27.4079 91.3054 27.6266C91.3054 26.9704 91.5241 26.5328 91.5241 25.8765C91.0866 25.8765 90.6491 25.8765 90.2115 25.8765C90.2115 25.6578 90.2115 25.6578 89.9928 25.439C89.774 25.2203 89.774 25.2203 89.5552 25.2203C89.3365 25.2203 89.1177 25.0015 88.8989 25.0015C88.6802 25.0015 88.4614 24.7827 88.4614 24.7827C88.4614 24.564 88.2427 24.3452 88.2427 24.1264C88.0239 23.9077 87.8051 23.9077 87.8051 23.6889C87.5864 23.6889 87.3676 23.4701 87.1488 23.4701C86.9301 23.4701 86.7113 23.2514 86.7113 23.0326C86.7113 22.8139 86.9301 22.5951 86.9301 22.3763C87.1488 22.1576 87.1488 22.1576 87.3676 21.9388C87.5864 21.72 87.8051 21.72 87.8051 21.5013C88.0239 21.5013 88.2427 21.2825 88.2427 21.0637C88.4614 21.2825 88.899 21.2825 89.1177 21.0637C89.3365 21.0637 89.774 21.0637 89.774 20.845C89.9928 20.845 90.2115 20.845 90.2115 20.845C90.4303 20.845 90.4303 20.845 90.6491 20.845C90.6491 20.845 90.8678 20.845 90.8678 20.6262L91.0866 20.4075C91.3054 20.4075 91.3054 20.4075 91.5241 20.6262C91.7429 20.6262 91.7429 20.845 91.9616 20.845C92.8367 20.845 93.493 20.845 94.1493 20.845C94.8056 20.845 95.2431 20.845 95.8994 20.845C95.6806 22.5951 95.0243 23.2514 95.2431 23.2514ZM74.6793 18.2198C74.2418 19.3136 73.8043 20.4075 73.3668 21.5013C72.9292 22.5951 72.7105 23.6889 72.2729 24.7827C72.0542 25.8765 71.8354 26.9704 71.6167 28.2829C71.6167 29.3768 71.6167 30.6893 71.6167 31.7832C71.6167 32.4394 71.6166 33.0957 71.3979 33.5333C71.1791 33.9708 70.9604 34.1895 70.5228 34.4083C70.0853 34.6271 69.6478 34.6271 69.2103 34.6271C68.7727 34.6271 68.3352 34.6271 67.8977 34.4083C67.6789 33.9708 67.4602 33.5333 67.2414 33.0957C67.0226 32.6582 66.8039 32.0019 66.8039 31.5644C66.5851 31.1269 66.5851 30.4706 66.3663 30.033C66.1476 29.5955 66.1476 28.9392 66.1476 28.7205C66.3663 28.5017 66.3663 28.0642 66.3663 27.8454C66.3663 27.4079 66.3663 27.1891 66.5851 26.7516C66.5851 26.3141 66.5851 25.8765 66.5851 25.6578C66.5851 25.2203 66.5851 24.7827 66.8039 24.564C67.0226 23.4701 67.2414 22.5951 67.6789 21.72C68.1164 20.845 68.3352 19.9699 68.554 18.8761C68.554 18.6574 68.554 18.4386 68.554 18.2198C68.554 18.0011 68.554 17.7823 68.554 17.7823C68.554 17.7823 68.554 17.5635 68.7727 17.5635C68.9915 17.5635 68.9915 17.5635 68.9915 17.3448C68.9915 17.126 68.9915 16.9072 68.9915 16.6885C68.9915 16.4697 68.9915 16.251 69.2103 16.0322C69.429 15.8134 69.429 15.5947 69.6478 15.1571C69.8665 14.7196 69.8665 14.5009 69.8665 14.0633C70.0853 13.8446 70.3041 13.8446 70.5228 13.6258C70.7416 13.407 70.9604 13.1883 71.1791 13.1883C71.3979 12.9695 71.6167 12.9695 71.8354 12.7507C72.0542 12.532 72.4917 12.532 72.7105 12.532C72.9292 12.7507 72.9292 12.9695 73.148 13.407C73.148 13.6258 73.148 14.0633 73.3668 14.2821C73.3668 14.5008 73.5855 14.9384 73.5855 15.1571C73.8043 15.3759 73.8043 15.5947 74.2418 15.8134C74.2418 16.0322 74.2418 16.251 74.2418 16.4697C74.2418 16.6885 74.2418 17.126 74.2418 17.3448C74.2418 17.5635 74.2418 17.7823 74.4606 18.0011C74.4606 18.0011 74.4606 18.2198 74.6793 18.2198ZM63.7412 30.033C63.3036 30.4706 62.8661 30.9081 62.6474 31.1269C62.4286 31.3456 62.4286 31.5644 62.2098 31.5644L61.9911 31.7832C61.9911 31.7832 61.7723 32.0019 61.3348 32.2207C60.241 32.877 58.9284 33.3145 57.8346 33.9708C56.522 34.4083 55.4282 34.8458 54.1156 34.8458C53.8968 35.0646 53.8968 35.0646 53.6781 35.2834C53.4593 35.2834 53.2405 35.5021 53.0218 35.5021C52.803 35.5021 52.5842 35.5021 52.1467 35.7209C51.7092 35.9397 51.7092 35.7209 51.2717 35.7209L51.0529 35.5021C51.0529 35.5021 51.0529 35.2834 50.8341 35.2834C50.8341 35.5021 50.6154 35.7209 50.3966 35.7209C50.1778 35.7209 49.9591 35.7209 49.7403 35.5021C49.5216 35.2834 49.084 35.2834 48.8653 35.0646C48.6465 34.8458 48.209 34.6271 47.9902 34.4083C47.7714 34.6271 47.7715 34.8458 47.5527 35.0646C47.3339 35.2834 47.1152 35.5021 47.1152 35.5021C46.8964 35.5021 46.6776 35.5021 46.4589 35.2834C46.2401 35.2834 46.2401 35.2834 46.0213 35.5021C45.8026 35.5021 45.8026 35.2834 45.5838 35.2834L45.3651 35.0646L45.1463 34.8458C45.1463 34.8458 44.9275 34.6271 44.7088 34.6271C44.7088 34.6271 44.7088 34.4083 44.7088 34.1895C44.7088 33.9708 44.49 33.752 44.2712 33.752C44.49 33.5333 44.2712 33.3145 44.2712 33.0957C44.0525 32.877 44.0525 32.4394 43.8337 32.2207C43.8337 32.0019 43.8337 32.0019 43.8337 31.7832C43.8337 31.5644 43.8337 31.5644 43.8337 31.3456C43.8337 31.1269 43.8337 31.1269 44.0525 30.9081L44.2712 30.6893C44.2712 30.4706 44.2712 30.2518 44.0525 29.8143C44.2712 29.5955 44.2712 29.5955 44.49 29.3768C44.49 29.158 44.7088 28.9392 44.7088 28.7205C44.7088 28.5017 44.9275 28.2829 44.9275 28.0642C44.9275 27.8454 45.1463 27.6266 45.3651 27.6266C45.3651 27.6266 45.3651 27.4079 45.1463 27.4079V27.1891C45.5838 26.7516 45.8026 26.3141 45.8026 25.8765C46.0213 25.439 46.0213 25.2203 46.2401 24.7827C46.2401 24.3452 46.4589 24.1264 46.4589 23.6889C46.4589 23.2514 46.6776 22.8139 47.1152 22.1576C47.1152 21.72 47.1152 21.5013 47.3339 21.0637C47.5527 20.845 47.5527 20.4075 47.7715 20.1887C47.9902 19.9699 47.9902 19.5324 47.9902 19.3136C47.9902 19.0949 47.9902 18.6574 47.9902 18.2198C47.5527 18.2198 47.3339 18.4386 47.1152 18.6574C46.8964 18.8761 46.8964 19.0949 46.6776 19.5324C46.4589 19.7512 46.2401 19.7512 46.0213 19.7512C45.8026 19.7512 45.3651 19.7512 45.1463 19.7512C44.2712 19.3136 43.6149 18.8761 42.9587 18.2198C42.3024 17.5635 42.0836 16.6885 41.6461 15.8134C41.8648 15.1571 42.3024 14.7196 42.7399 14.5009C43.1774 14.0633 43.8337 13.8446 44.2712 13.6258C44.9275 13.407 45.3651 13.1883 46.0213 12.9695C46.6776 12.7507 47.3339 12.7507 47.9902 12.532C48.209 12.532 48.209 12.532 48.209 12.532C48.209 12.532 48.209 12.532 48.4277 12.532C49.084 12.3132 49.9591 12.0945 51.0529 11.8757C52.1467 11.6569 53.0218 11.6569 54.1156 11.6569C54.3344 11.6569 54.5531 11.4382 54.5531 11.4382C54.7719 11.4382 54.9906 11.4382 55.2094 11.4382C55.4282 11.4382 55.6469 11.4382 55.8657 11.4382C56.0845 11.4382 56.3032 11.4382 56.3032 11.4382C56.522 11.6569 56.522 11.6569 56.9595 11.6569C57.1783 11.6569 57.397 11.8757 57.8346 12.0945C57.8346 12.0945 57.8346 12.0945 57.8346 11.8757V11.6569C58.0533 11.6569 58.2721 11.6569 58.4909 11.8757C58.7096 12.0945 58.9284 12.0945 59.1471 12.3132C59.3659 12.532 59.5847 12.532 59.5847 12.7507C59.8034 12.9695 59.8034 12.9695 60.0222 12.9695C60.241 13.1883 60.4597 13.407 60.6785 13.6258C60.8973 13.8446 61.116 14.0633 61.3348 14.2821C61.5535 14.5008 61.7723 14.7196 61.9911 14.9384C62.2098 15.1571 62.2098 15.3759 62.2098 15.8134C62.2098 16.0322 62.2098 16.0322 62.4286 16.0322C62.4286 16.0322 62.6474 16.0322 62.6474 16.251C62.6474 17.126 62.4286 17.7823 62.2098 18.2198C61.9911 18.8761 61.5535 19.3136 61.116 19.7512C60.6785 20.1887 60.241 20.6262 59.8034 21.0637C59.3659 21.5013 58.9284 21.9388 58.4909 22.3763C58.7096 22.5951 58.9284 23.0326 59.3659 23.2514C59.5847 23.4701 60.0222 23.6889 60.241 24.1264C60.4597 24.3452 60.8972 24.564 61.116 25.0015C61.3348 25.2203 61.5535 25.6578 61.7723 25.8765C61.7723 26.0953 61.9911 26.0953 62.2098 26.0953C62.2098 26.3141 62.4286 26.5328 62.4286 26.9704C62.4286 27.1891 62.6474 27.4079 62.6474 27.6266C62.6474 27.8454 62.8661 28.0642 62.8661 28.2829C62.8661 28.5017 62.8661 28.7205 62.6474 28.7205C62.8661 28.7205 62.8661 28.9392 62.8661 29.158C63.7412 29.8143 63.7412 30.033 63.7412 30.033ZM35.7395 27.8454C35.7395 35.5021 29.3953 41.8463 21.7386 41.8463H20.426C12.7693 41.8463 6.42518 35.5021 6.42518 27.8454V5.96908C6.42518 5.75032 6.64394 5.53156 6.8627 5.53156H21.5198C29.1766 5.53156 35.5207 11.8757 35.5207 19.5324V27.8454H35.7395ZM184.936 32.6582L184.717 32.4394L184.936 32.0019C184.936 31.7832 184.936 31.5644 185.155 31.5644C185.155 31.5644 185.155 31.3456 185.374 31.3456L185.592 31.1269C186.03 30.9081 186.467 30.9081 186.905 30.6893C187.342 30.6893 187.561 30.6893 187.561 30.6893C187.78 30.6893 187.78 30.6893 187.999 30.9081C188.217 30.9081 188.436 31.1269 188.436 30.9081L189.093 30.6893V31.1269H189.749C189.749 31.3456 189.749 31.5644 189.749 31.7832C189.749 32.0019 189.749 32.0019 189.749 32.2207C189.749 32.4394 189.749 32.4394 189.968 32.6582C189.968 32.877 190.186 33.0957 190.405 33.3145L190.624 33.752L189.968 33.9708C189.968 33.9708 189.749 34.1895 189.53 34.4083C189.311 34.6271 189.093 34.8458 189.093 34.8458C188.874 35.0646 188.655 35.2834 188.436 35.5021C188.217 35.7209 187.999 35.9397 187.78 35.9397C187.561 35.9397 187.124 35.7209 187.124 35.7209C186.905 35.7209 186.905 35.7209 186.686 35.5021C186.467 35.2834 186.467 35.2834 186.249 35.0646C186.03 34.8458 186.03 34.8458 185.811 34.6271C185.811 34.4083 185.592 34.4083 185.592 34.4083C185.592 34.4083 185.592 34.4083 185.374 34.4083L185.155 34.1895C185.155 33.9708 185.155 33.9708 185.155 33.752C185.155 33.5333 185.155 33.5333 185.155 33.3145C184.936 33.0957 184.936 33.0957 184.936 32.6582C184.936 32.877 184.936 32.877 184.936 32.6582ZM209 28.9392V18.4386C209 8.37548 200.906 0.5 191.061 0.5H0.956095C0.737332 0.5 0.299805 0.718764 0.299805 1.15629V29.158C0.299805 39.2211 8.39405 47.0966 18.2384 47.0966H190.624C200.906 46.8778 209 38.7836 209 28.9392Z" fill="white"/>
</svg>
