<svg width="128" height="57" viewBox="0 0 128 57" fill="none" xmlns="http://www.w3.org/2000/svg">
<path d="M80.7236 43.6583L80.5628 44.3016H83.2965L83.1357 43.6583C82.6533 42.2111 82.1708 40.4423 82.01 39.1558H81.8492C81.6884 40.2815 81.206 42.2111 80.7236 43.6583ZM55.4774 38.8342H53.7085V47.3568H55.4774C57.7286 47.3568 58.2111 46.0704 58.2111 44.6232V41.5679C58.2111 39.9599 57.7286 38.8342 55.4774 38.8342ZM36.9849 33.8493V27.2563C36.9849 26.7739 36.6633 26.6131 36.3417 26.6131H25.7286C25.407 26.6131 25.0854 26.9347 25.0854 27.2563V31.7588C25.0854 32.2413 25.407 32.4021 25.7286 32.4021H30.5528V33.3669C30.5528 37.0654 28.6231 38.6734 25.0854 38.6734C20.7437 38.6734 19.1357 36.1005 19.1357 32.5629V24.5227C19.1357 20.985 20.5829 18.4121 25.0854 18.4121C27.9799 18.4121 29.4271 19.6985 30.2312 22.1106C30.392 22.593 30.7136 22.9146 31.196 22.593L35.8593 21.1458C36.3417 20.985 36.5025 20.6634 36.3417 20.0201C35.0553 16 32 11.9799 24.9246 11.9799C16.2412 11.9799 12.2211 17.1257 12.2211 24.0402V32.5629C12.2211 39.6382 16.2412 44.6232 24.9246 44.6232C32.1608 45.1056 36.9849 40.2815 36.9849 33.8493ZM64.3216 11.4975C62.8744 11.3367 61.5879 11.4975 60.3015 11.6583C59.0151 11.8191 57.8894 12.3016 56.9246 12.784C57.407 13.1056 57.7286 13.588 58.2111 13.9096C58.6935 14.2312 59.0151 14.5528 59.1759 15.196C60.3015 14.8744 61.2663 14.392 62.0703 13.7488C62.8744 12.9448 63.6784 12.3016 64.3216 11.4975ZM66.0904 22.7538C66.2513 22.593 66.2513 22.2714 66.2513 21.9498C65.4472 21.4674 64.6432 21.1458 64 20.985C63.3568 20.8242 62.7136 20.8242 62.0703 20.985C61.4271 20.985 60.7839 21.1458 60.3015 21.3066C59.6583 21.4674 59.1759 21.6282 58.5327 21.6282C58.211 22.4322 57.8894 23.2362 57.5678 24.0402C57.2462 25.0051 56.9246 25.8091 56.603 26.6131C57.407 26.6131 58.211 26.4523 58.8543 26.1307C59.4975 25.9699 60.1407 25.6483 60.7839 25.4875C61.4271 25.1659 62.0703 25.0051 62.7136 24.6835C63.3568 24.3619 64 24.2011 64.6432 24.0402C64.6432 23.7186 64.804 23.5578 65.1256 23.397C65.2864 23.2362 65.608 23.0754 65.7688 22.9146C65.7688 23.0754 65.9296 22.9146 66.0904 22.7538ZM111.598 39.9599C111.116 40.7639 110.633 41.2463 109.829 41.7287C109.829 41.8895 109.829 41.8895 109.829 42.0503C109.668 42.2111 109.347 42.2111 109.347 42.3719C109.186 42.5327 109.186 42.6935 109.025 42.6935C109.025 42.8543 108.864 43.0151 108.704 43.0151C108.543 43.1759 108.382 43.3367 108.06 43.3367C108.06 43.4975 107.899 43.6583 107.899 43.6583C107.739 43.6583 107.739 43.8191 107.578 43.8191C107.417 43.8191 107.417 43.9799 107.256 43.9799C107.095 43.9799 107.095 44.1408 107.095 44.3016L106.291 45.588C105.97 45.588 105.648 45.588 105.487 45.7488C105.327 45.7488 105.005 45.9096 105.005 45.9096C104.844 45.9096 104.683 45.9096 104.523 45.7488C104.362 45.588 104.362 45.4272 104.201 45.1056C104.201 44.9448 104.201 44.9448 104.201 44.784C104.201 44.784 104.362 44.6232 104.362 44.4624C104.362 44.1408 104.201 43.9799 104.362 43.8191C104.362 43.6583 104.523 43.4975 104.523 43.3367C104.683 43.1759 104.683 43.0151 104.844 43.0151C105.005 42.8543 105.005 42.6935 105.005 42.3719C105.166 42.2111 105.327 42.0503 105.487 41.7287C105.648 41.4071 105.809 41.2463 105.97 40.9247C106.291 40.6031 106.452 40.4423 106.613 40.2815C106.774 40.1207 106.935 39.9598 107.095 39.799C107.256 39.6382 107.417 39.4774 107.578 39.3166C107.739 39.1558 107.899 38.8342 108.06 38.5126C107.899 38.3518 107.739 38.3518 107.578 38.3518C107.417 38.3518 107.256 38.5126 107.095 38.5126C106.774 38.5126 106.291 38.5126 105.97 38.5126C105.648 38.5126 105.166 38.6734 104.683 38.8342C104.523 38.8342 104.362 38.995 104.362 38.995C104.362 38.995 104.201 38.995 104.04 39.1558C104.04 39.3166 103.879 39.3166 103.879 39.3166C103.719 39.3166 103.719 39.4774 103.558 39.4774C103.397 39.4774 103.397 39.6382 103.236 39.6382C103.075 39.6382 103.075 39.799 102.915 39.799C102.593 39.799 102.432 39.799 102.271 39.6382C102.111 39.4774 101.789 39.4774 101.628 39.3166V39.1558V38.995C101.467 38.995 101.467 38.995 101.467 38.8342C101.467 38.8342 101.467 38.8342 101.307 38.6734C101.307 38.5126 101.307 38.3518 101.307 38.0302C101.307 37.8694 101.467 37.7086 101.467 37.5478C101.467 37.387 101.628 37.2262 101.628 37.0654C101.628 36.9046 101.789 36.7438 101.789 36.583C101.95 36.4222 102.111 36.4222 102.271 36.2614C102.432 36.1006 102.432 35.9397 102.593 35.7789C103.236 35.4573 103.879 35.2965 104.523 35.1357C105.166 34.9749 105.809 34.8141 106.452 34.8141C107.095 34.8141 107.739 34.6533 108.382 34.6533C109.025 34.6533 109.668 34.6533 110.472 34.6533C110.633 34.6533 110.633 34.8141 110.794 34.9749C110.955 35.1357 110.955 35.1357 111.116 35.1357C111.116 35.4573 111.276 35.7789 111.276 36.1006C111.437 36.4222 111.437 36.7438 111.598 36.9046C112.241 38.3518 112.08 39.1558 111.598 39.9599ZM104.683 18.7337C104.844 18.8945 105.005 19.0553 104.683 19.2161C104.683 19.2161 104.844 20.5026 104.523 21.789L104.201 22.593C104.201 22.7538 104.201 23.0754 104.201 23.2362C104.201 23.5578 104.201 23.8794 104.201 24.2011C104.201 24.5227 104.201 24.8443 104.201 25.1659C104.04 25.9699 103.879 26.7739 103.719 27.5779C103.397 28.382 103.236 29.186 103.075 29.99C103.075 30.1508 103.075 30.3116 103.075 30.4724C103.075 30.6332 103.236 30.794 103.075 30.9548C103.075 30.9548 103.075 31.1156 102.915 31.1156C102.754 31.1156 102.754 31.2764 102.754 31.2764C102.754 31.4372 102.754 31.598 102.754 31.7588C102.754 31.9196 102.754 32.0805 102.593 32.2413C102.593 32.4021 102.593 32.5629 102.432 32.8845C102.271 33.2061 102.271 33.5277 102.271 33.8493C102.111 34.0101 101.95 34.1709 101.789 34.3317C101.628 34.4925 101.467 34.6533 101.307 34.8141C101.146 34.9749 100.985 35.1357 100.824 35.1357C100.663 35.2965 100.342 35.2965 100.02 35.2965C99.8593 35.1357 99.6985 34.8141 99.6985 34.6533C99.6985 34.4925 99.5377 34.1709 99.5377 34.0101C99.5377 33.8493 99.3769 33.5277 99.2161 33.3669C99.0553 33.2061 98.8945 33.0453 98.7337 32.8845C98.7337 32.7237 98.7337 32.5629 98.7337 32.2413C98.7337 32.0805 98.7337 31.7588 98.7337 31.598C98.7337 31.4372 98.7337 31.1156 98.5729 30.9548C98.5729 30.794 98.4121 30.6332 98.2513 30.6332C98.4121 30.1508 98.5729 29.8292 98.7337 29.3468C98.412 29.3468 98.2512 29.5076 97.9296 29.5076C97.608 29.5076 97.4472 29.6684 97.2864 29.8292C96 29.99 94.7136 29.99 93.4271 29.99C92.1407 29.99 90.8543 29.8292 89.7286 29.6684C89.407 29.5076 89.2462 29.186 88.9246 29.0252C88.603 28.8644 88.2814 28.7036 87.9598 28.7036C87.3166 28.382 86.8342 27.8995 86.3518 27.2563C85.8693 26.6131 85.5477 25.9699 85.2261 25.3267C84.9045 24.6835 84.5829 23.8794 84.4221 23.2362C84.2613 22.4322 84.1005 21.789 83.9397 20.985C84.1005 20.5026 84.1005 19.8593 84.4221 19.3769C84.5829 18.8945 84.7437 18.4121 85.0653 17.9297C85.3869 17.4473 85.5477 17.1257 85.8693 16.6433C86.1909 16.1609 86.3517 15.8392 86.6734 15.3568C86.8342 15.3568 86.8342 15.3568 86.995 15.3568C86.995 15.196 87.1558 14.8744 87.3166 14.7136C87.4774 14.5528 87.6382 14.392 87.799 14.2312C87.9598 14.0704 88.1206 13.9096 88.2814 13.7488C88.4422 13.588 88.603 13.4272 88.603 13.2664C89.0854 13.1056 89.407 12.784 89.8894 12.6232C90.211 12.3016 90.5327 11.98 90.8543 11.8191C91.1759 11.4975 91.4975 11.1759 91.8191 11.0151C92.1407 10.6935 92.6231 10.5327 92.9447 10.3719C93.1055 10.2111 93.2663 9.8895 93.5879 9.72869C93.7487 9.56789 94.0703 9.40709 94.392 9.24628C94.7136 9.08548 94.8744 8.92467 95.0352 8.76387C95.196 8.60306 95.3568 8.44226 95.5176 8.12065C95.6784 8.28146 95.8392 8.28146 96 8.12065C96.1608 7.95985 96.3216 7.95985 96.4824 7.79905C96.6432 7.79905 96.6432 7.79905 96.804 7.79905C96.9648 7.79905 96.9648 7.95985 97.1256 7.95985L97.2864 8.12065C97.2864 8.12065 97.4472 8.12065 97.4472 7.95985C97.608 7.95985 97.608 7.95985 97.608 8.12065C97.608 8.28146 97.608 8.28146 97.4472 8.44226C97.608 8.44226 97.7688 8.44226 97.9296 8.44226C98.0904 8.60307 98.2513 8.60307 98.5729 8.60307C98.7337 8.76387 98.7337 8.76387 98.7337 8.76387C98.7337 8.76387 98.7337 8.92467 98.7337 9.08548C99.5377 9.24628 100.02 9.40709 100.181 9.8895C100.503 10.3719 100.503 10.8543 100.503 11.3367C100.503 11.8191 100.181 12.3016 99.8593 12.784C99.5377 13.2664 99.0553 13.588 98.5729 13.9096C97.9296 14.2312 97.4472 14.392 96.9648 14.7136C96.4824 14.8744 96 15.196 95.5176 15.5176C95.0352 15.8392 94.7136 16.1609 94.2312 16.4825C93.9095 16.8041 93.5879 17.1257 93.2663 17.6081C92.7839 17.9297 92.3015 18.0905 91.8191 18.5729C91.4975 18.8945 91.0151 19.2161 90.6935 19.6985C90.3718 20.0201 90.0502 20.5026 89.7286 20.985C89.407 21.4674 89.0854 21.789 88.9246 22.2714C88.9246 22.593 88.9246 22.9146 88.9246 23.0754C88.7638 23.2362 88.7638 23.397 88.603 23.7186C88.7638 24.0402 88.7638 24.3619 89.0854 24.6835C89.2462 25.0051 89.407 25.1659 89.5678 25.4875C91.1759 25.6483 92.9447 25.6483 94.7136 25.4875C96.4824 25.3267 98.2513 25.1659 99.8593 24.8443L100.02 25.0051C100.181 24.3619 100.181 23.7186 100.181 23.2362C99.6985 23.2362 99.2161 23.2362 98.7337 23.397C98.7337 23.2362 98.5729 23.0754 98.4121 22.9146C98.2513 22.7538 98.0904 22.7538 97.9296 22.593C97.7688 22.4322 97.4472 22.4322 97.2864 22.4322C97.1256 22.4322 96.804 22.2714 96.6432 22.2714C96.6432 21.9498 96.4824 21.789 96.3216 21.6282C96.1608 21.4674 96 21.3066 95.6784 21.3066C95.5176 21.1458 95.196 21.1458 95.0352 20.985C94.8744 20.8242 94.7136 20.6634 94.5528 20.5026C94.7136 20.181 94.7136 20.0202 94.8744 19.8593C95.0352 19.6985 95.196 19.5377 95.3568 19.3769C95.5176 19.2161 95.6784 19.0553 95.8392 19.0553C96 18.8945 96.1608 18.8945 96.3216 18.7337C96.6432 18.8945 96.9648 18.8945 97.2864 18.8945C97.608 18.8945 97.9296 18.7337 98.0904 18.7337C98.2512 18.7337 98.4121 18.7337 98.5729 18.7337C98.7337 18.7337 98.8945 18.8945 99.0553 18.8945C99.2161 18.8945 99.2161 18.8945 99.2161 18.7337C99.2161 18.5729 99.3769 18.5729 99.3769 18.5729C99.5377 18.5729 99.6985 18.5729 99.8593 18.7337C100.02 18.8945 100.181 18.8945 100.342 18.8945C101.146 18.8945 101.95 18.8945 102.754 18.8945C103.558 18.8945 103.879 18.7337 104.683 18.8945C105.005 17.9297 104.362 18.5729 104.683 18.7337ZM82.8141 13.4272C82.3316 14.5528 81.8492 15.8392 81.3668 16.9649C80.8844 18.0905 80.5628 19.3769 80.2412 20.5026C79.9196 21.6282 79.7588 22.9146 79.598 24.2011C79.4372 25.4875 79.598 26.6131 79.7588 27.8995C79.9196 28.7036 79.7588 29.186 79.598 29.6684C79.4372 30.1508 79.1156 30.4724 78.6332 30.6332C78.1507 30.794 77.8291 30.9548 77.1859 30.9548C76.7035 30.9548 76.2211 30.9548 75.7387 30.794C75.5779 30.4724 75.2563 29.99 75.0955 29.5076C74.9347 29.0252 74.7739 28.382 74.6131 27.8995C74.4523 27.2563 74.2915 26.7739 74.1307 26.1307C73.9698 25.4875 73.9698 25.0051 73.809 24.6835C73.9698 24.3619 73.9698 24.0402 74.1307 23.7186C74.1307 23.397 74.2915 22.9146 74.2915 22.593C74.2915 22.1106 74.2915 21.789 74.4523 21.3066C74.4523 20.8242 74.4523 20.5026 74.6131 20.181C74.7739 19.0553 75.0955 18.0905 75.5779 17.1257C75.8995 16.1609 76.2211 15.196 76.5427 14.0704C76.5427 13.9096 76.5427 13.588 76.5427 13.4272C76.3819 13.2664 76.3819 13.1056 76.5427 12.784C76.5427 12.6232 76.7035 12.6232 76.7035 12.6232C76.8643 12.6232 76.8643 12.4624 76.8643 12.4624C76.8643 11.8191 76.8643 11.6583 76.8643 11.4975C76.8643 11.3367 76.8643 11.1759 77.0251 10.8543C77.1859 10.6935 77.3467 10.3719 77.5075 10.0503C77.6683 9.72869 77.8291 9.24628 77.8291 8.76387C77.9899 8.60306 78.3116 8.44226 78.4724 8.28146C78.6332 8.12065 78.9548 7.95985 79.1156 7.79905C79.2764 7.63824 79.598 7.47744 79.9196 7.31663C80.2412 7.15583 80.5628 7.15583 80.8844 7.15583C81.0452 7.47744 81.206 7.63824 81.206 7.95985C81.206 8.28146 81.3668 8.60306 81.3668 8.92467C81.3668 9.24628 81.5276 9.56789 81.6884 9.72869C81.8492 10.0503 82.01 10.2111 82.3317 10.3719C82.3317 10.5327 82.3317 10.8543 82.3317 11.1759C82.3317 11.4975 82.3317 11.8191 82.3317 12.1408C82.3317 12.4624 82.3316 12.784 82.4925 12.9448C82.4925 13.1056 82.6533 13.2664 82.8141 13.4272ZM73.809 50.0905C73.809 50.2513 73.6482 50.4121 73.4874 50.4121H64.804C64.6432 50.4121 64.4824 50.2513 64.4824 50.0905V35.7789C64.4824 35.6181 64.6432 35.4573 64.804 35.4573H73.4874C73.6482 35.4573 73.809 35.6181 73.809 35.7789V38.191C73.809 38.3518 73.6482 38.5126 73.4874 38.5126H67.8593V41.2463H72.8442C73.005 41.2463 73.1658 41.4071 73.1658 41.5679V43.8191C73.1658 43.9799 73.005 44.1408 72.8442 44.1408H67.8593V47.196H73.4874C73.6482 47.196 73.809 47.3568 73.809 47.5176V50.0905ZM71.0754 25.9699C70.593 26.6131 70.2714 26.9347 69.9497 27.2563C69.7889 27.4171 69.6281 27.7387 69.4673 27.7387C69.3065 27.8995 69.3065 27.8995 69.1457 28.0603C68.9849 28.2212 68.8241 28.382 68.5025 28.5428C67.2161 29.186 66.0904 29.8292 64.804 30.3116C63.5176 30.794 62.2312 31.1156 60.7839 31.2764C60.6231 31.4372 60.4623 31.598 60.3015 31.598C60.1407 31.7588 59.8191 31.7588 59.4975 31.7588C59.1759 31.7588 59.0151 31.9196 58.6935 31.9196C58.3719 31.9196 58.0502 31.9196 57.8894 32.0805C57.7286 32.0805 57.7286 31.9196 57.7286 31.9196C57.7286 31.7588 57.7286 31.7588 57.5678 31.7588C57.5678 32.0804 57.407 32.0805 57.2462 32.2413C57.0854 32.2413 56.7638 32.2413 56.4422 32.0805C56.1206 31.9196 55.799 31.7588 55.4774 31.598C55.1558 31.4372 54.8342 31.1156 54.6734 30.9548C54.5126 31.1156 54.3518 31.2764 54.191 31.598C54.0301 31.7588 53.8693 31.9196 53.7085 32.0805C53.3869 32.0805 53.2261 31.9196 53.0653 31.9196C52.9045 31.9196 52.7437 31.9196 52.5829 32.0805C52.4221 31.9196 52.2613 31.9196 52.2613 31.7588C52.1005 31.598 52.1005 31.598 51.9397 31.4372C51.7789 31.2764 51.7789 31.2764 51.6181 31.1156C51.4573 30.9548 51.2965 30.9548 51.1357 30.9548C51.1357 30.794 51.1357 30.6332 51.1357 30.4724C50.9749 30.3116 50.8141 30.1508 50.6533 29.99C50.8141 29.8292 50.8141 29.5076 50.4925 29.3468C50.3316 29.0252 50.1708 28.7036 50.01 28.382C50.01 28.2212 50.01 28.0604 50.01 27.8995C50.01 27.7387 50.01 27.5779 50.1709 27.4171C50.1709 27.2563 50.3317 27.0955 50.3317 27.0955C50.3317 26.9347 50.4925 26.9347 50.6533 26.9347C50.6533 26.6131 50.4925 26.2915 50.4925 26.1307C50.6533 25.9699 50.8141 25.8091 50.9749 25.4875C50.9749 25.3267 51.1357 25.0051 51.1357 24.8443C51.1357 24.5227 51.2965 24.3619 51.4573 24.2011C51.6181 24.0403 51.7789 23.7186 51.9397 23.5578L51.7789 23.397V23.2362C52.1005 22.7538 52.4221 22.2714 52.5829 21.789C52.7437 21.4674 52.9045 20.985 52.9045 20.6634C53.0653 20.3418 53.0653 19.8593 53.2261 19.5377C53.3869 19.0553 53.5477 18.5729 53.8693 17.9297C53.8693 17.6081 53.8693 17.1257 54.0301 16.8041C54.1909 16.4825 54.3518 16.1609 54.3518 15.8392C54.5126 15.5176 54.5126 15.196 54.6734 14.8744C54.6734 14.5528 54.8342 14.2312 54.6734 13.7488C54.3518 13.7488 54.0301 13.9096 53.8693 14.0704C53.7085 14.2312 53.5477 14.5528 53.5477 15.0352C53.3869 15.196 53.0653 15.3568 52.7437 15.196C52.4221 15.196 52.1005 15.196 51.9397 15.3568C50.9749 14.8744 50.3316 14.392 49.6884 13.588C49.0452 12.9448 48.5628 11.98 48.2412 11.0151C48.5628 10.3719 48.8844 9.8895 49.3668 9.56789C49.8492 9.24628 50.4925 8.92467 51.1357 8.60307C51.7789 8.28146 52.4221 8.12065 53.0653 7.95985C53.7085 7.79904 54.5126 7.63824 55.1558 7.63824C55.3166 7.63824 55.3166 7.63824 55.3166 7.63824C55.3166 7.63824 55.3166 7.63824 55.4774 7.63824C56.2814 7.47744 57.2462 7.15583 58.2111 6.99503C59.1759 6.83422 60.3015 6.83422 61.5879 6.83422C61.7487 6.67342 61.9095 6.67342 62.2312 6.67342C62.392 6.67342 62.7136 6.67342 62.8744 6.67342C63.196 6.67342 63.3568 6.67342 63.5176 6.67342C63.6784 6.67342 64 6.67342 64.1608 6.51261C64.3216 6.67342 64.4824 6.83422 64.804 6.83422C65.1256 6.83422 65.2864 6.99502 65.608 7.15583C65.7688 7.15583 65.7688 7.15583 65.608 6.99503C65.4472 6.83422 65.608 6.83422 65.608 6.83422C65.9296 6.83422 66.0904 6.99503 66.4121 6.99503C66.5729 7.15583 66.8945 7.31663 67.0553 7.47744C67.2161 7.63824 67.3769 7.79904 67.5377 7.95985C67.6985 8.12065 67.8593 8.12065 68.0201 8.12065C68.1809 8.44226 68.5025 8.60306 68.6633 8.76387C68.9849 8.92467 69.1457 9.24628 69.4673 9.40709C69.7889 9.56789 69.9497 9.8895 70.1105 10.2111C70.2713 10.5327 70.2714 10.8543 70.2714 11.1759C70.2714 11.3367 70.2714 11.3367 70.4322 11.3367C70.593 11.3367 70.593 11.4975 70.593 11.4975C70.593 12.3016 70.4322 13.1056 70.1105 13.588C69.7889 14.2312 69.4673 14.7136 68.9849 15.196C68.5025 15.6784 68.0201 16.1609 67.5377 16.4825C67.0553 16.9649 66.5729 17.4473 66.0904 17.9297C66.4121 18.2513 66.5729 18.5729 66.8945 18.8945C67.2161 19.2161 67.5377 19.5377 67.8593 19.6985C68.1809 20.0201 68.5025 20.3418 68.8241 20.6634C69.1457 20.985 69.4673 21.3066 69.6281 21.789C69.6281 21.9498 69.7889 21.9498 70.1105 22.1106C70.1105 22.4322 70.2714 22.593 70.4322 22.9146C70.593 23.2362 70.593 23.397 70.7538 23.7186C70.9146 24.0402 70.9146 24.2011 70.9146 24.3619C70.9146 24.5227 70.9146 24.6835 70.7538 24.8443C70.9146 25.0051 70.9146 25.0051 71.0754 25.3267C71.0754 25.6483 71.0754 25.8091 71.0754 25.9699ZM42.2915 33.5277C42.2915 42.8543 34.7337 50.4121 25.407 50.4121H23.799C14.4724 50.4121 6.91457 42.8543 6.91457 33.5277V7.47744C6.91457 7.15583 7.23618 6.99503 7.39698 6.99503H25.407C34.7337 6.99503 42.2915 14.5528 42.2915 23.8794V33.5277ZM50.1709 35.9397C50.1709 35.7789 50.3316 35.6181 50.4925 35.6181H55.4774C59.8191 35.6181 61.7487 38.3518 61.7487 41.4071V44.6232C61.7487 47.8392 59.8191 50.5729 55.4774 50.5729H50.4925C50.3316 50.5729 50.1709 50.4121 50.1709 50.2513V35.9397ZM75.4171 50.0905L79.7588 35.9397C79.7588 35.7789 79.9196 35.6181 80.2412 35.6181H83.7789C84.1005 35.6181 84.2613 35.7789 84.2613 35.9397L88.7638 50.0905C88.9246 50.2513 88.7638 50.4121 88.603 50.4121H85.7085C85.3869 50.4121 85.3869 50.2513 85.2261 50.0905L84.4221 47.196H79.7588L78.794 50.0905C78.794 50.2513 78.4724 50.4121 78.3116 50.4121H75.7387C75.4171 50.4121 75.2563 50.2513 75.4171 50.0905ZM90.5327 35.9397C90.5327 35.7789 90.6935 35.6181 90.8543 35.6181H93.5879C93.7487 35.6181 93.9095 35.7789 93.9095 35.9397V47.3568H99.3769C99.5377 47.3568 99.6985 47.5176 99.6985 47.6784V50.2513C99.6985 50.4121 99.5377 50.5729 99.3769 50.5729H90.6935C90.5327 50.5729 90.3719 50.4121 90.3719 50.2513V35.9397H90.5327ZM103.879 48.9649C103.879 48.9649 103.879 48.8041 103.879 48.9649L103.719 48.6433L103.879 48.3217C103.879 48.1609 103.879 48 104.04 48C104.04 48 104.04 47.8392 104.201 47.8392L104.362 47.6784C104.683 47.5176 105.005 47.5176 105.166 47.3568C105.327 47.3568 105.487 47.3568 105.648 47.3568C105.648 47.3568 105.809 47.3568 105.809 47.5176C105.97 47.5176 106.131 47.6784 106.131 47.5176L106.452 47.3568V47.6784H106.935C106.935 47.8392 106.935 48 106.935 48.1609C106.935 48.3217 106.935 48.3217 106.935 48.4825C106.935 48.4825 106.935 48.6433 107.095 48.8041C107.095 48.9649 107.256 49.1257 107.417 49.2865L107.578 49.6081L107.256 49.7689C107.256 49.7689 107.095 49.9297 106.935 50.0905C106.774 50.2513 106.774 50.4121 106.613 50.4121C106.452 50.5729 106.291 50.7337 106.291 50.8945C106.131 51.0553 105.97 51.2161 105.809 51.2161C105.648 51.2161 105.487 51.0553 105.327 51.0553C105.166 51.0553 105.166 51.0553 105.005 50.8945C104.844 50.7337 104.844 50.7337 104.683 50.5729C104.683 50.4121 104.523 50.4121 104.362 50.2513L104.201 50.0905C104.201 50.0905 104.201 50.0905 104.04 50.0905L103.879 49.9297C103.879 49.7689 103.879 49.7689 103.879 49.6081C103.879 49.2865 103.879 49.2865 103.879 48.9649C103.879 49.1257 103.879 48.9649 103.879 48.9649ZM128 34.8141V22.2714C128 10.2111 118.352 0.562866 106.291 0.562866H0.643215C0.321607 0.562866 0 0.884474 0 1.20608V34.8141C0 46.8744 9.64824 56.5227 21.7085 56.5227H106.291C118.352 56.5227 128 46.8744 128 34.8141Z" fill="#2E008B"/>
</svg>
